<svg xmlns="http://www.w3.org/2000/svg" viewBox="0 0 220 270" role="img" aria-label="Hannya mask with blade horns and bared fangs">
<g fill="none" stroke="#f1f0eb" stroke-linejoin="miter">
<path fill="#f1f0eb" stroke-width="2" d="M35 101C14 76 10 35 19 6L32 55 61 84 82 79 110 85 138 79 159 84 188 55 201 6C210 35 206 76 185 101L206 122 193 164 177 182 173 215 151 243 110 265 69 243 47 215 43 182 27 164 14 122Z"/>
<path fill="#050505" stroke="none" d="M43 104L73 94 105 107 110 125 115 107 147 94 177 104 193 126 180 154 158 174 161 211 138 237 110 251 82 237 59 211 62 174 40 154 27 126Z"/>
<path stroke-width="7" d="M37 117L68 115 98 134M183 117L152 115 122 134"/>
<path fill="#f1f0eb" stroke="none" d="M42 129L84 144 62 146 48 139ZM178 129L136 144 158 146 172 139Z"/>
<path stroke-width="3" d="M31 147L55 158 69 154M189 147L165 158 151 154M99 140L91 171 103 167 110 175 117 167 129 171 121 140"/>
<path fill="#f1f0eb" stroke="none" d="M58 174L80 186 101 181 110 186 119 181 140 186 162 174 151 214 133 229 110 236 87 229 69 214Z"/>
<path fill="#050505" stroke="none" d="M72 189L89 197 110 190 131 197 148 189 137 216 110 225 83 216Z"/>
<path fill="#f1f0eb" stroke="none" d="M76 182L91 190 86 221ZM144 182L129 190 134 221ZM97 224L103 206 109 226ZM123 224L117 206 111 226Z"/>
<path stroke="#050505" stroke-width="2" d="M50 87L36 62M170 87L184 62M55 97L82 89M165 97L138 89M74 231L84 222M146 231L136 222"/>
<path stroke-width="2" d="M98 101L105 94M122 101L115 94M110 104L110 116M35 154L48 169M185 154L172 169"/>
</g></svg>
